HIERARCHY
ROOT Hips
{
	OFFSET	0.00	0.00	0.00
	CHANNELS 6 Xposition Yposition Zposition Zrotation Xrotation Yrotation
	JOINT LeftUpLeg
	{
		OFFSET	 0.126116	-0.065224	 0.014019
		CHANNELS 3 Zrotation Xrotation Yrotation
		JOINT LeftLeg
		{
			OFFSET	 0.000000	 0.569914	 0.000000
			CHANNELS 3 Zrotation Xrotation Yrotation
			JOINT LeftFoot
			{
				OFFSET	 0.000000	 0.544423	 0.000000
				CHANNELS 3 Zrotation Xrotation Yrotation
				JOINT LeftToeBase
				{
					OFFSET	 0.000000	 0.207117	 0.000000
					CHANNELS 3 Zrotation Xrotation Yrotation
					End Site
					{
						OFFSET	 0.000000	 0.207117	 0.000000
					}
				}
			}
		}
	}
	JOINT RightUpLeg
	{
		OFFSET	-0.124023	-0.065224	 0.008373
		CHANNELS 3 Zrotation Xrotation Yrotation
		JOINT RightLeg
		{
			OFFSET	 0.000000	 0.570047	 0.000000
			CHANNELS 3 Zrotation Xrotation Yrotation
			JOINT RightFoot
			{
				OFFSET	 0.000000	 0.544354	 0.000000
				CHANNELS 3 Zrotation Xrotation Yrotation
				JOINT RightToeBase
				{
					OFFSET	 0.000000	 0.207540	 0.000000
					CHANNELS 3 Zrotation Xrotation Yrotation
					End Site
					{
						OFFSET	 0.000000	 0.207540	 0.000000
					}
				}
			}
		}
	}
	JOINT Spine
	{
		OFFSET	 0.000184	 0.117403	 0.007763
		CHANNELS 3 Zrotation Xrotation Yrotation
		JOINT Spine1
		{
			OFFSET	 0.000000	 0.137269	 0.000000
			CHANNELS 3 Zrotation Xrotation Yrotation
			JOINT Spine2
			{
				OFFSET	 0.000000	 0.156879	 0.000000
				CHANNELS 3 Zrotation Xrotation Yrotation
				JOINT LeftShoulder
				{
					OFFSET	 0.080501	 0.160143	 0.002496
					CHANNELS 3 Zrotation Xrotation Yrotation
					JOINT LeftArm
					{
						OFFSET	 0.000000	 0.164363	 0.000000
						CHANNELS 3 Zrotation Xrotation Yrotation
						JOINT LeftForeArm
						{
							OFFSET	 0.000000	 0.364576	 0.000000
							CHANNELS 3 Zrotation Xrotation Yrotation
							JOINT LeftHand
							{
								OFFSET	 0.000000	 0.360812	 0.000000
								CHANNELS 3 Zrotation Xrotation Yrotation
								JOINT LeftHandIndex1
								{
									OFFSET	 0.000000	 0.086006	 0.000000
									CHANNELS 3 Zrotation Xrotation Yrotation
									JOINT LeftHandIndex2
									{
										OFFSET	 0.000000	 0.047237	 0.000000
										CHANNELS 3 Zrotation Xrotation Yrotation
										JOINT LeftHandIndex3
										{
											OFFSET	-0.004284	 0.038165	 0.000551
											CHANNELS 3 Zrotation Xrotation Yrotation
											End Site
											{
												OFFSET	-0.004284	 0.038165	 0.000551
											}
										}
									}
								}
							}
						}
					}
				}
				JOINT Neck
				{
					OFFSET	 0.000000	 0.176489	 0.000000
					CHANNELS 3 Zrotation Xrotation Yrotation
					JOINT Head
					{
						OFFSET	 0.000000	 0.077941	 0.001747
						CHANNELS 3 Zrotation Xrotation Yrotation
						End Site
						{
							OFFSET	 0.000000	 0.077941	 0.001747
						}
					}
				}
				JOINT RightShoulder
				{
					OFFSET	-0.080363	 0.159706	-0.000306
					CHANNELS 3 Zrotation Xrotation Yrotation
					JOINT RightArm
					{
						OFFSET	 0.000000	 0.164196	 0.000000
						CHANNELS 3 Zrotation Xrotation Yrotation
						JOINT RightForeArm
						{
							OFFSET	 0.000000	 0.365611	 0.000000
							CHANNELS 3 Zrotation Xrotation Yrotation
							JOINT RightHand
							{
								OFFSET	 0.000000	 0.360648	 0.000000
								CHANNELS 3 Zrotation Xrotation Yrotation
								JOINT RightHandIndex1
								{
									OFFSET	 0.000000	 0.069977	 0.000000
									CHANNELS 3 Zrotation Xrotation Yrotation
									JOINT RightHandIndex2
									{
										OFFSET	 0.000000	 0.052305	 0.000000
										CHANNELS 3 Zrotation Xrotation Yrotation
										JOINT RightHandIndex3
										{
											OFFSET	 0.009002	 0.042196	 0.000782
											CHANNELS 3 Zrotation Xrotation Yrotation
											End Site
											{
												OFFSET	 0.009002	 0.042196	 0.000782
											}
										}
									}
								}
							}
						}
					}
				}
			}
		}
	}
}
MOTION
Frames:    8
Frame Time: 0.03333334
 0.432447	 1.264245	 0.318344	 0.584199	-2.374013	-177.253300	-178.727000	 8.838127	-14.473830	 5.227962	-18.931530	 6.459327	 5.940259	 73.983270	-2.925104	 1.292262	 28.425850	-2.713146	 176.050400	 5.536031	 16.134140	-3.081502	-15.625270	 0.613895	 3.320680	 73.051540	-6.779662	-1.288183	 28.361890	 2.710176	 1.066778	 6.401674	 8.040471	-2.382695	-6.258958	 3.804492	 2.685998	 7.339685	-12.515910	-117.460200	-0.780186	 89.958330	 21.721010	-1.135406	-6.688946	 4.704238	-0.382184	 34.719030	 21.075960	-5.968978	 9.673715	-6.580301	 5.266122	 0.000000	 0.000000	 0.000000	 0.000000	 0.000000	 0.000000	 0.000000	 4.795690	 27.118210	 1.712509	-4.221259	-16.875180	-3.146080	 116.289200	-0.440631	-90.568980	-11.720570	-4.053704	 22.546830	-5.058976	 0.120725	-57.197330	 13.447420	 8.820392	 20.909730	 15.208500	 5.323790	 0.000000	 0.000000	 0.000000	 0.000000	 0.000000	 0.000000	 0.000000
 0.432626	 1.264899	 0.323482	 0.627328	-2.437743	-177.250300	-178.572400	 8.840245	-15.173540	 5.145412	-18.654170	 6.437124	 5.981103	 73.752600	-2.881787	 1.292262	 28.425850	-2.713146	 176.004400	 5.762647	 16.832380	-3.038522	-15.417940	 0.618942	 3.055018	 72.654650	-6.646556	-1.288183	 28.361890	 2.710176	 1.123284	 6.643162	 7.994936	-2.422737	-7.280073	 3.751726	 2.815766	 8.885129	-12.415060	-117.479100	-0.785960	 89.955750	 21.994410	-1.420596	-6.556996	 4.691858	-0.378396	 34.670780	 20.342010	-5.183908	 10.214570	-6.580301	 5.266122	 0.000000	 0.000000	 0.000000	 0.000000	 0.000000	 0.000000	 0.000000	 4.808862	 27.159730	 1.701582	-4.225039	-16.674680	-3.117110	 116.319100	-0.448879	-90.566130	-11.996080	-4.039713	 22.528950	-5.040339	 0.124018	-57.162980	 13.287500	 9.342122	 19.866820	 15.208500	 5.323790	 0.000000	 0.000000	 0.000000	 0.000000	 0.000000	 0.000000	 0.000000
 0.432928	 1.266004	 0.331164	 0.683491	-2.596141	-177.239100	-178.368200	 8.876181	-16.171230	 4.996889	-18.152780	 6.412076	 6.119854	 73.345470	-2.861881	 1.292262	 28.425850	-2.713146	 175.940200	 6.119833	 17.837520	-2.954401	-15.011050	 0.609099	 2.524409	 72.016900	-6.350878	-1.288183	 28.361890	 2.710176	 1.114885	 7.154732	 7.850451	-2.413130	-9.233774	 3.506129	 2.950055	 11.536960	-11.782100	-117.573600	-0.814792	 89.942890	 22.436440	-2.110442	-6.119635	 4.685421	-0.363686	 34.433390	 18.459300	-3.462563	 10.575290	-6.580301	 5.266122	 0.000000	 0.000000	 0.000000	 0.000000	 0.000000	 0.000000	 0.000000	 4.874704	 27.366540	 1.646913	-4.230539	-16.403930	-2.937880	 116.468100	-0.490014	-90.551940	-12.446930	-4.332034	 22.457610	-5.018437	 0.142032	-56.993710	 11.851370	 9.788547	 17.710400	 15.208500	 5.323790	 0.000000	 0.000000	 0.000000	 0.000000	 0.000000	 0.000000	 0.000000
 0.433175	 1.266879	 0.336333	 0.709700	-2.752140	-177.226200	-178.258400	 8.913198	-16.797080	 4.869134	-17.719160	 6.399341	 6.282248	 73.006420	-2.888665	 1.292262	 28.425850	-2.713146	 175.897100	 6.369820	 18.484010	-2.880153	-14.650540	 0.589173	 2.078454	 71.547160	-6.094167	-1.288183	 28.361890	 2.710176	 1.034586	 7.515066	 7.726279	-2.341906	-10.675840	 3.226909	 2.974591	 13.474310	-11.010640	-117.689200	-0.850018	 89.927050	 22.746680	-2.782842	-5.662234	 4.691356	-0.347131	 34.146960	 16.719790	-1.858903	 10.535870	-6.580301	 5.266122	 0.000000	 0.000000	 0.000000	 0.000000	 0.000000	 0.000000	 0.000000	 4.955716	 27.619450	 1.579535	-4.235160	-16.252730	-2.721381	 116.650400	-0.540284	-90.534390	-12.763520	-4.803773	 22.376940	-5.005226	 0.164154	-56.792770	 9.997094	 9.924281	 15.835980	 15.208500	 5.323790	 0.000000	 0.000000	 0.000000	 0.000000	 0.000000	 0.000000	 0.000000
 0.433439	 1.267876	 0.341697	 0.718993	-2.951661	-177.211200	-178.179300	 8.956217	-17.412060	 4.711754	-17.181880	 6.390014	 6.493266	 72.597030	-2.927449	 1.292262	 28.425850	-2.713146	 175.847700	 6.629477	 19.124500	-2.786466	-14.193880	 0.557385	 1.551049	 71.020760	-5.793260	-1.288183	 28.361890	 2.710176	 0.871574	 7.888939	 7.573245	-2.193467	-12.229960	 2.833096	 2.918337	 15.568920	-9.889591	-117.853800	-0.900082	 89.904440	 23.064430	-3.663801	-5.082899	 4.703355	-0.324157	 33.746300	 14.547540	 0.225986	 10.267480	-6.580301	 5.266122	 0.000000	 0.000000	 0.000000	 0.000000	 0.000000	 0.000000	 0.000000	 5.071961	 27.979380	 1.482639	-4.240689	-16.128630	-2.410090	 116.910000	-0.611723	-90.509170	-13.076670	-5.579609	 22.250010	-4.994602	 0.195693	-56.518190	 7.245258	 9.979167	 13.565600	 15.208500	 5.323790	 0.000000	 0.000000	 0.000000	 0.000000	 0.000000	 0.000000	 0.000000
 0.433805	 1.269232	 0.348102	 0.698077	-3.237462	-177.189800	-178.142400	 8.984229	-18.090220	 4.475003	-16.367530	 6.379298	 6.797374	 72.000480	-2.979912	 1.292262	 28.425850	-2.713146	 175.778300	 6.927027	 19.843870	-2.648292	-13.516970	 0.506918	 0.841671	 70.328890	-5.395827	-1.288183	 28.361890	 2.710176	 0.556884	 8.298183	 7.343032	-1.906615	-14.062460	 2.210714	 2.710755	 18.074010	-8.091777	-118.105200	-0.976444	 89.869610	 23.403100	-4.942286	-4.332588	 4.725631	-0.290313	 33.149830	 11.518470	 3.285146	 9.686149	-6.580301	 5.266122	 0.000000	 0.000000	 0.000000	 0.000000	 0.000000	 0.000000	 0.000000	 5.251689	 28.529030	 1.332336	-4.247386	-16.034880	-1.918173	 117.306500	-0.720657	-90.470000	-13.383720	-6.916985	 21.996290	-4.985113	 0.243594	-56.123920	 2.793387	 9.979593	 10.545610	 15.208500	 5.323790	 0.000000	 0.000000	 0.000000	 0.000000	 0.000000	 0.000000	 0.000000
 0.434339	 1.270958	 0.355037	 0.631789	-3.596507	-177.161800	-178.179600	 8.935820	-18.753250	 4.136093	-15.189540	 6.362386	 7.156314	 71.178180	-3.005019	 1.292262	 28.425850	-2.713146	 175.689400	 7.214245	 20.565230	-2.462271	-12.599470	 0.440415	 0.000144	 69.489190	-4.942700	-1.288183	 28.361890	 2.710176	 0.065254	 8.647629	 7.026604	-1.460038	-15.867620	 1.340484	 2.278672	 20.594160	-5.571908	-118.435600	-1.076535	 89.823310	 23.661290	-6.546646	-3.589548	 4.759320	-0.247853	 32.393270	 7.818531	 7.223694	 8.849044	-6.580301	 5.266122	 0.000000	 0.000000	 0.000000	 0.000000	 0.000000	 0.000000	 0.000000	 5.491823	 29.250650	 1.130613	-4.252822	-16.023920	-1.240669	 117.827700	-0.863360	-90.417410	-13.567550	-8.865225	 21.505530	-4.974268	 0.305807	-55.648960	-3.458211	 9.932138	 7.157386	 15.208500	 5.323790	 0.000000	 0.000000	 0.000000	 0.000000	 0.000000	 0.000000	 0.000000
 0.435038	 1.273042	 0.362496	 0.507619	-4.023529	-177.131200	-178.317800	 8.751623	-19.383550	 3.666733	-13.535440	 6.338621	 7.564775	 70.070300	-2.981630	 1.292262	 28.425850	-2.713146	 175.580800	 7.456969	 21.275620	-2.217080	-11.379920	 0.358760	-0.942076	 68.471190	-4.477300	-1.288183	 28.361890	 2.710176	-0.621625	 8.869900	 6.647551	-0.834544	-17.431640	 0.206063	 1.564275	 22.802930	-2.291748	-118.845000	-1.200152	 89.765190	 23.749460	-8.422077	-3.049357	 4.801482	-0.197566	 31.495850	 3.581928	 11.939140	 7.919865	-6.580301	 5.266122	 0.000000	 0.000000	 0.000000	 0.000000	 0.000000	 0.000000	 0.000000	 5.795943	 30.144040	 0.873713	-4.253514	-16.159880	-0.372235	 118.473700	-1.039525	-90.350430	-13.516770	-11.475440	 20.607360	-4.960645	 0.381856	-55.123460	-11.639120	 9.804263	 3.778724	 15.208500	 5.323790	 0.000000	 0.000000	 0.000000	 0.000000	 0.000000	 0.000000	 0.000000
